<<svg version="1.1" id="Layer_1" xmlns="http://www.w3.org/2000/svg" x="0px" y="0px" viewBox="0 0 512 512" enable-background="new 0 0 512 512" xml:space="preserve">
<g>
	<g>
		<g>
			<g>
				<g>
					<g>
						<g>
							<g>
								<defs>
									<path id="SVGID_1_" d="M473.271,272.5H38.729c-8.397,0-15.229-7.401-15.229-16.5c0-9.098,6.832-16.5,15.229-16.5h434.542
										c8.397,0,15.229,7.402,15.229,16.5C488.5,265.099,481.669,272.5,473.271,272.5z M38.973,257.5h434.054
										c0.167-0.185,0.473-0.675,0.473-1.5s-0.306-1.315-0.473-1.5H38.972c-0.167,0.185-0.472,0.675-0.472,1.5
										S38.806,257.315,38.973,257.5z"/>
								</defs>
								<use xlink:href="#SVGID_1_"  overflow="visible"/>
								<clipPath id="SVGID_2_">
									<use xlink:href="#SVGID_1_"  overflow="visible"/>
								</clipPath>
								<g clip-path="url(#SVGID_2_)">
									<g>
										<rect x="28.999" y="247.001" width="4" height="18"/>
										<rect x="21.499" y="239.501" width="19" height="33"/>
									</g>
								</g>
							</g>
						</g>
					</g>
					<g>
						<g>
							<g>
								<defs>
									<path id="SVGID_3_" d="M473.271,272.5H38.729c-8.397,0-15.229-7.401-15.229-16.5c0-9.098,6.832-16.5,15.229-16.5h434.542
										c8.397,0,15.229,7.402,15.229,16.5C488.5,265.099,481.669,272.5,473.271,272.5z M38.973,257.5h434.054
										c0.167-0.185,0.473-0.675,0.473-1.5s-0.306-1.315-0.473-1.5H38.972c-0.167,0.185-0.472,0.675-0.472,1.5
										S38.806,257.315,38.973,257.5z"/>
								</defs>
								<use xlink:href="#SVGID_3_"  overflow="visible"/>
								<clipPath id="SVGID_4_">
									<use xlink:href="#SVGID_3_"  overflow="visible"/>
								</clipPath>
								<g clip-path="url(#SVGID_4_)">
									<g>
										<rect x="28.999" y="245.001" width="9.66" height="22"/>
										<rect x="21.499" y="237.501" width="24.66" height="37"/>
									</g>
								</g>
							</g>
						</g>
					</g>
					<g>
						<g>
							<g>
								<defs>
									<path id="SVGID_5_" d="M473.271,272.5H38.729c-8.397,0-15.229-7.401-15.229-16.5c0-9.098,6.832-16.5,15.229-16.5h434.542
										c8.397,0,15.229,7.402,15.229,16.5C488.5,265.099,481.669,272.5,473.271,272.5z M38.973,257.5h434.054
										c0.167-0.185,0.473-0.675,0.473-1.5s-0.306-1.315-0.473-1.5H38.972c-0.167,0.185-0.472,0.675-0.472,1.5
										S38.806,257.315,38.973,257.5z"/>
								</defs>
								<use xlink:href="#SVGID_5_"  overflow="visible"/>
								<clipPath id="SVGID_6_">
									<use xlink:href="#SVGID_5_"  overflow="visible"/>
								</clipPath>
								<g clip-path="url(#SVGID_6_)">
									<g>
										<rect x="34.659" y="245.001" width="9.664" height="22"/>
										<rect x="27.159" y="237.501" width="24.664" height="37"/>
									</g>
								</g>
							</g>
						</g>
					</g>
					<g>
						<g>
							<g>
								<defs>
									<path id="SVGID_7_" d="M473.271,272.5H38.729c-8.397,0-15.229-7.401-15.229-16.5c0-9.098,6.832-16.5,15.229-16.5h434.542
										c8.397,0,15.229,7.402,15.229,16.5C488.5,265.099,481.669,272.5,473.271,272.5z M38.973,257.5h434.054
										c0.167-0.185,0.473-0.675,0.473-1.5s-0.306-1.315-0.473-1.5H38.972c-0.167,0.185-0.472,0.675-0.472,1.5
										S38.806,257.315,38.973,257.5z"/>
								</defs>
								<use xlink:href="#SVGID_7_"  overflow="visible"/>
								<clipPath id="SVGID_8_">
									<use xlink:href="#SVGID_7_"  overflow="visible"/>
								</clipPath>
								<g clip-path="url(#SVGID_8_)">
									<g>
										<rect x="40.323" y="245.001" width="9.656" height="22"/>
										<rect x="32.823" y="237.501" width="24.656" height="37"/>
									</g>
								</g>
							</g>
						</g>
					</g>
					<g>
						<g>
							<g>
								<defs>
									<path id="SVGID_9_" d="M473.271,272.5H38.729c-8.397,0-15.229-7.401-15.229-16.5c0-9.098,6.832-16.5,15.229-16.5h434.542
										c8.397,0,15.229,7.402,15.229,16.5C488.5,265.099,481.669,272.5,473.271,272.5z M38.973,257.5h434.054
										c0.167-0.185,0.473-0.675,0.473-1.5s-0.306-1.315-0.473-1.5H38.972c-0.167,0.185-0.472,0.675-0.472,1.5
										S38.806,257.315,38.973,257.5z"/>
								</defs>
								<use xlink:href="#SVGID_9_"  overflow="visible"/>
								<clipPath id="SVGID_10_">
									<use xlink:href="#SVGID_9_"  overflow="visible"/>
								</clipPath>
								<g clip-path="url(#SVGID_10_)">
									<g>
										<rect x="45.979" y="245.001" width="9.664" height="22"/>
										<rect x="38.479" y="237.501" width="24.664" height="37"/>
									</g>
								</g>
							</g>
						</g>
					</g>
					<g>
						<g>
							<g>
								<defs>
									<path id="SVGID_11_" d="M473.271,272.5H38.729c-8.397,0-15.229-7.401-15.229-16.5c0-9.098,6.832-16.5,15.229-16.5h434.542
										c8.397,0,15.229,7.402,15.229,16.5C488.5,265.099,481.669,272.5,473.271,272.5z M38.973,257.5h434.054
										c0.167-0.185,0.473-0.675,0.473-1.5s-0.306-1.315-0.473-1.5H38.972c-0.167,0.185-0.472,0.675-0.472,1.5
										S38.806,257.315,38.973,257.5z"/>
								</defs>
								<use xlink:href="#SVGID_11_"  overflow="visible"/>
								<clipPath id="SVGID_12_">
									<use xlink:href="#SVGID_11_"  overflow="visible"/>
								</clipPath>
								<g clip-path="url(#SVGID_12_)">
									<g>
										<rect x="51.643" y="245.001" width="9.66" height="22"/>
										<rect x="44.143" y="237.501" width="24.66" height="37"/>
									</g>
								</g>
							</g>
						</g>
					</g>
					<g>
						<g>
							<g>
								<defs>
									<path id="SVGID_13_" d="M473.271,272.5H38.729c-8.397,0-15.229-7.401-15.229-16.5c0-9.098,6.832-16.5,15.229-16.5h434.542
										c8.397,0,15.229,7.402,15.229,16.5C488.5,265.099,481.669,272.5,473.271,272.5z M38.973,257.5h434.054
										c0.167-0.185,0.473-0.675,0.473-1.5s-0.306-1.315-0.473-1.5H38.972c-0.167,0.185-0.472,0.675-0.472,1.5
										S38.806,257.315,38.973,257.5z"/>
								</defs>
								<use xlink:href="#SVGID_13_"  overflow="visible"/>
								<clipPath id="SVGID_14_">
									<use xlink:href="#SVGID_13_"  overflow="visible"/>
								</clipPath>
								<g clip-path="url(#SVGID_14_)">
									<g>
										<rect x="57.303" y="245.001" width="9.66" height="22"/>
										<rect x="49.803" y="237.501" width="24.66" height="37"/>
									</g>
								</g>
							</g>
						</g>
					</g>
					<g>
						<g>
							<g>
								<defs>
									<path id="SVGID_15_" d="M473.271,272.5H38.729c-8.397,0-15.229-7.401-15.229-16.5c0-9.098,6.832-16.5,15.229-16.5h434.542
										c8.397,0,15.229,7.402,15.229,16.5C488.5,265.099,481.669,272.5,473.271,272.5z M38.973,257.5h434.054
										c0.167-0.185,0.473-0.675,0.473-1.5s-0.306-1.315-0.473-1.5H38.972c-0.167,0.185-0.472,0.675-0.472,1.5
										S38.806,257.315,38.973,257.5z"/>
								</defs>
								<use xlink:href="#SVGID_15_"  overflow="visible"/>
								<clipPath id="SVGID_16_">
									<use xlink:href="#SVGID_15_"  overflow="visible"/>
								</clipPath>
								<g clip-path="url(#SVGID_16_)">
									<g>
										<rect x="62.964" y="245.001" width="9.66" height="22"/>
										<rect x="55.464" y="237.501" width="24.66" height="37"/>
									</g>
								</g>
							</g>
						</g>
					</g>
					<g>
						<g>
							<g>
								<defs>
									<path id="SVGID_17_" d="M473.271,272.5H38.729c-8.397,0-15.229-7.401-15.229-16.5c0-9.098,6.832-16.5,15.229-16.5h434.542
										c8.397,0,15.229,7.402,15.229,16.5C488.5,265.099,481.669,272.5,473.271,272.5z M38.973,257.5h434.054
										c0.167-0.185,0.473-0.675,0.473-1.5s-0.306-1.315-0.473-1.5H38.972c-0.167,0.185-0.472,0.675-0.472,1.5
										S38.806,257.315,38.973,257.5z"/>
								</defs>
								<use xlink:href="#SVGID_17_"  overflow="visible"/>
								<clipPath id="SVGID_18_">
									<use xlink:href="#SVGID_17_"  overflow="visible"/>
								</clipPath>
								<g clip-path="url(#SVGID_18_)">
									<g>
										<rect x="68.624" y="245.001" width="9.66" height="22"/>
										<rect x="61.124" y="237.501" width="24.66" height="37"/>
									</g>
								</g>
							</g>
						</g>
					</g>
					<g>
						<g>
							<g>
								<defs>
									<path id="SVGID_19_" d="M473.271,272.5H38.729c-8.397,0-15.229-7.401-15.229-16.5c0-9.098,6.832-16.5,15.229-16.5h434.542
										c8.397,0,15.229,7.402,15.229,16.5C488.5,265.099,481.669,272.5,473.271,272.5z M38.973,257.5h434.054
										c0.167-0.185,0.473-0.675,0.473-1.5s-0.306-1.315-0.473-1.5H38.972c-0.167,0.185-0.472,0.675-0.472,1.5
										S38.806,257.315,38.973,257.5z"/>
								</defs>
								<use xlink:href="#SVGID_19_"  overflow="visible"/>
								<clipPath id="SVGID_20_">
									<use xlink:href="#SVGID_19_"  overflow="visible"/>
								</clipPath>
								<g clip-path="url(#SVGID_20_)">
									<g>
										<rect x="74.284" y="245.001" width="9.66" height="22"/>
										<rect x="66.784" y="237.501" width="24.66" height="37"/>
									</g>
								</g>
							</g>
						</g>
					</g>
					<g>
						<g>
							<g>
								<defs>
									<path id="SVGID_21_" d="M473.271,272.5H38.729c-8.397,0-15.229-7.401-15.229-16.5c0-9.098,6.832-16.5,15.229-16.5h434.542
										c8.397,0,15.229,7.402,15.229,16.5C488.5,265.099,481.669,272.5,473.271,272.5z M38.973,257.5h434.054
										c0.167-0.185,0.473-0.675,0.473-1.5s-0.306-1.315-0.473-1.5H38.972c-0.167,0.185-0.472,0.675-0.472,1.5
										S38.806,257.315,38.973,257.5z"/>
								</defs>
								<use xlink:href="#SVGID_21_"  overflow="visible"/>
								<clipPath id="SVGID_22_">
									<use xlink:href="#SVGID_21_"  overflow="visible"/>
								</clipPath>
								<g clip-path="url(#SVGID_22_)">
									<g>
										<rect x="79.944" y="245.001" width="9.66" height="22"/>
										<rect x="72.444" y="237.501" width="24.66" height="37"/>
									</g>
								</g>
							</g>
						</g>
					</g>
					<g>
						<g>
							<g>
								<defs>
									<path id="SVGID_23_" d="M473.271,272.5H38.729c-8.397,0-15.229-7.401-15.229-16.5c0-9.098,6.832-16.5,15.229-16.5h434.542
										c8.397,0,15.229,7.402,15.229,16.5C488.5,265.099,481.669,272.5,473.271,272.5z M38.973,257.5h434.054
										c0.167-0.185,0.473-0.675,0.473-1.5s-0.306-1.315-0.473-1.5H38.972c-0.167,0.185-0.472,0.675-0.472,1.5
										S38.806,257.315,38.973,257.5z"/>
								</defs>
								<use xlink:href="#SVGID_23_"  overflow="visible"/>
								<clipPath id="SVGID_24_">
									<use xlink:href="#SVGID_23_"  overflow="visible"/>
								</clipPath>
								<g clip-path="url(#SVGID_24_)">
									<g>
										<rect x="85.604" y="245.001" width="9.66" height="22"/>
										<rect x="78.104" y="237.501" width="24.66" height="37"/>
									</g>
								</g>
							</g>
						</g>
					</g>
					<g>
						<g>
							<g>
								<defs>
									<path id="SVGID_25_" d="M473.271,272.5H38.729c-8.397,0-15.229-7.401-15.229-16.5c0-9.098,6.832-16.5,15.229-16.5h434.542
										c8.397,0,15.229,7.402,15.229,16.5C488.5,265.099,481.669,272.5,473.271,272.5z M38.973,257.5h434.054
										c0.167-0.185,0.473-0.675,0.473-1.5s-0.306-1.315-0.473-1.5H38.972c-0.167,0.185-0.472,0.675-0.472,1.5
										S38.806,257.315,38.973,257.5z"/>
								</defs>
								<use xlink:href="#SVGID_25_"  overflow="visible"/>
								<clipPath id="SVGID_26_">
									<use xlink:href="#SVGID_25_"  overflow="visible"/>
								</clipPath>
								<g clip-path="url(#SVGID_26_)">
									<g>
										<rect x="91.264" y="245.001" width="9.66" height="22"/>
										<rect x="83.764" y="237.501" width="24.66" height="37"/>
									</g>
								</g>
							</g>
						</g>
					</g>
					<g>
						<g>
							<g>
								<defs>
									<path id="SVGID_27_" d="M473.271,272.5H38.729c-8.397,0-15.229-7.401-15.229-16.5c0-9.098,6.832-16.5,15.229-16.5h434.542
										c8.397,0,15.229,7.402,15.229,16.5C488.5,265.099,481.669,272.5,473.271,272.5z M38.973,257.5h434.054
										c0.167-0.185,0.473-0.675,0.473-1.5s-0.306-1.315-0.473-1.5H38.972c-0.167,0.185-0.472,0.675-0.472,1.5
										S38.806,257.315,38.973,257.5z"/>
								</defs>
								<use xlink:href="#SVGID_27_"  overflow="visible"/>
								<clipPath id="SVGID_28_">
									<use xlink:href="#SVGID_27_"  overflow="visible"/>
								</clipPath>
								<g clip-path="url(#SVGID_28_)">
									<g>
										<rect x="96.925" y="245.001" width="9.66" height="22"/>
										<rect x="89.425" y="237.501" width="24.66" height="37"/>
									</g>
								</g>
							</g>
						</g>
					</g>
					<g>
						<g>
							<g>
								<defs>
									<path id="SVGID_29_" d="M473.271,272.5H38.729c-8.397,0-15.229-7.401-15.229-16.5c0-9.098,6.832-16.5,15.229-16.5h434.542
										c8.397,0,15.229,7.402,15.229,16.5C488.5,265.099,481.669,272.5,473.271,272.5z M38.973,257.5h434.054
										c0.167-0.185,0.473-0.675,0.473-1.5s-0.306-1.315-0.473-1.5H38.972c-0.167,0.185-0.472,0.675-0.472,1.5
										S38.806,257.315,38.973,257.5z"/>
								</defs>
								<use xlink:href="#SVGID_29_"  overflow="visible"/>
								<clipPath id="SVGID_30_">
									<use xlink:href="#SVGID_29_"  overflow="visible"/>
								</clipPath>
								<g clip-path="url(#SVGID_30_)">
									<g>
										<rect x="102.585" y="245.001" width="9.66" height="22"/>
										<rect x="95.085" y="237.501" width="24.66" height="37"/>
									</g>
								</g>
							</g>
						</g>
					</g>
					<g>
						<g>
							<g>
								<defs>
									<path id="SVGID_31_" d="M473.271,272.5H38.729c-8.397,0-15.229-7.401-15.229-16.5c0-9.098,6.832-16.5,15.229-16.5h434.542
										c8.397,0,15.229,7.402,15.229,16.5C488.5,265.099,481.669,272.5,473.271,272.5z M38.973,257.5h434.054
										c0.167-0.185,0.473-0.675,0.473-1.5s-0.306-1.315-0.473-1.5H38.972c-0.167,0.185-0.472,0.675-0.472,1.5
										S38.806,257.315,38.973,257.5z"/>
								</defs>
								<use xlink:href="#SVGID_31_"  overflow="visible"/>
								<clipPath id="SVGID_32_">
									<use xlink:href="#SVGID_31_"  overflow="visible"/>
								</clipPath>
								<g clip-path="url(#SVGID_32_)">
									<g>
										<rect x="108.245" y="245.001" width="9.66" height="22"/>
										<rect x="100.745" y="237.501" width="24.66" height="37"/>
									</g>
								</g>
							</g>
						</g>
					</g>
					<g>
						<g>
							<g>
								<defs>
									<path id="SVGID_33_" d="M473.271,272.5H38.729c-8.397,0-15.229-7.401-15.229-16.5c0-9.098,6.832-16.5,15.229-16.5h434.542
										c8.397,0,15.229,7.402,15.229,16.5C488.5,265.099,481.669,272.5,473.271,272.5z M38.973,257.5h434.054
										c0.167-0.185,0.473-0.675,0.473-1.5s-0.306-1.315-0.473-1.5H38.972c-0.167,0.185-0.472,0.675-0.472,1.5
										S38.806,257.315,38.973,257.5z"/>
								</defs>
								<use xlink:href="#SVGID_33_"  overflow="visible"/>
								<clipPath id="SVGID_34_">
									<use xlink:href="#SVGID_33_"  overflow="visible"/>
								</clipPath>
								<g clip-path="url(#SVGID_34_)">
									<g>
										<rect x="113.905" y="245.001" width="9.66" height="22"/>
										<rect x="106.405" y="237.501" width="24.66" height="37"/>
									</g>
								</g>
							</g>
						</g>
					</g>
					<g>
						<g>
							<g>
								<defs>
									<path id="SVGID_35_" d="M473.271,272.5H38.729c-8.397,0-15.229-7.401-15.229-16.5c0-9.098,6.832-16.5,15.229-16.5h434.542
										c8.397,0,15.229,7.402,15.229,16.5C488.5,265.099,481.669,272.5,473.271,272.5z M38.973,257.5h434.054
										c0.167-0.185,0.473-0.675,0.473-1.5s-0.306-1.315-0.473-1.5H38.972c-0.167,0.185-0.472,0.675-0.472,1.5
										S38.806,257.315,38.973,257.5z"/>
								</defs>
								<use xlink:href="#SVGID_35_"  overflow="visible"/>
								<clipPath id="SVGID_36_">
									<use xlink:href="#SVGID_35_"  overflow="visible"/>
								</clipPath>
								<g clip-path="url(#SVGID_36_)">
									<g>
										<rect x="119.565" y="245.001" width="9.66" height="22"/>
										<rect x="112.065" y="237.501" width="24.66" height="37"/>
									</g>
								</g>
							</g>
						</g>
					</g>
					<g>
						<g>
							<g>
								<defs>
									<path id="SVGID_37_" d="M473.271,272.5H38.729c-8.397,0-15.229-7.401-15.229-16.5c0-9.098,6.832-16.5,15.229-16.5h434.542
										c8.397,0,15.229,7.402,15.229,16.5C488.5,265.099,481.669,272.5,473.271,272.5z M38.973,257.5h434.054
										c0.167-0.185,0.473-0.675,0.473-1.5s-0.306-1.315-0.473-1.5H38.972c-0.167,0.185-0.472,0.675-0.472,1.5
										S38.806,257.315,38.973,257.5z"/>
								</defs>
								<use xlink:href="#SVGID_37_"  overflow="visible"/>
								<clipPath id="SVGID_38_">
									<use xlink:href="#SVGID_37_"  overflow="visible"/>
								</clipPath>
								<g clip-path="url(#SVGID_38_)">
									<g>
										<rect x="125.225" y="245.001" width="9.66" height="22"/>
										<rect x="117.725" y="237.501" width="24.66" height="37"/>
									</g>
								</g>
							</g>
						</g>
					</g>
					<g>
						<g>
							<g>
								<defs>
									<path id="SVGID_39_" d="M473.271,272.5H38.729c-8.397,0-15.229-7.401-15.229-16.5c0-9.098,6.832-16.5,15.229-16.5h434.542
										c8.397,0,15.229,7.402,15.229,16.5C488.5,265.099,481.669,272.5,473.271,272.5z M38.973,257.5h434.054
										c0.167-0.185,0.473-0.675,0.473-1.5s-0.306-1.315-0.473-1.5H38.972c-0.167,0.185-0.472,0.675-0.472,1.5
										S38.806,257.315,38.973,257.5z"/>
								</defs>
								<use xlink:href="#SVGID_39_"  overflow="visible"/>
								<clipPath id="SVGID_40_">
									<use xlink:href="#SVGID_39_"  overflow="visible"/>
								</clipPath>
								<g clip-path="url(#SVGID_40_)">
									<g>
										<rect x="130.886" y="245.001" width="9.664" height="22"/>
										<rect x="123.386" y="237.501" width="24.664" height="37"/>
									</g>
								</g>
							</g>
						</g>
					</g>
					<g>
						<g>
							<g>
								<defs>
									<path id="SVGID_41_" d="M473.271,272.5H38.729c-8.397,0-15.229-7.401-15.229-16.5c0-9.098,6.832-16.5,15.229-16.5h434.542
										c8.397,0,15.229,7.402,15.229,16.5C488.5,265.099,481.669,272.5,473.271,272.5z M38.973,257.5h434.054
										c0.167-0.185,0.473-0.675,0.473-1.5s-0.306-1.315-0.473-1.5H38.972c-0.167,0.185-0.472,0.675-0.472,1.5
										S38.806,257.315,38.973,257.5z"/>
								</defs>
								<use xlink:href="#SVGID_41_"  overflow="visible"/>
								<clipPath id="SVGID_42_">
									<use xlink:href="#SVGID_41_"  overflow="visible"/>
								</clipPath>
								<g clip-path="url(#SVGID_42_)">
									<g>
										<rect x="136.55" y="245.001" width="9.656" height="22"/>
										<rect x="129.05" y="237.501" width="24.656" height="37"/>
									</g>
								</g>
							</g>
						</g>
					</g>
					<g>
						<g>
							<g>
								<defs>
									<path id="SVGID_43_" d="M473.271,272.5H38.729c-8.397,0-15.229-7.401-15.229-16.5c0-9.098,6.832-16.5,15.229-16.5h434.542
										c8.397,0,15.229,7.402,15.229,16.5C488.5,265.099,481.669,272.5,473.271,272.5z M38.973,257.5h434.054
										c0.167-0.185,0.473-0.675,0.473-1.5s-0.306-1.315-0.473-1.5H38.972c-0.167,0.185-0.472,0.675-0.472,1.5
										S38.806,257.315,38.973,257.5z"/>
								</defs>
								<use xlink:href="#SVGID_43_"  overflow="visible"/>
								<clipPath id="SVGID_44_">
									<use xlink:href="#SVGID_43_"  overflow="visible"/>
								</clipPath>
								<g clip-path="url(#SVGID_44_)">
									<g>
										<rect x="142.206" y="245.001" width="9.664" height="22"/>
										<rect x="134.706" y="237.501" width="24.664" height="37"/>
									</g>
								</g>
							</g>
						</g>
					</g>
					<g>
						<g>
							<g>
								<defs>
									<path id="SVGID_45_" d="M473.271,272.5H38.729c-8.397,0-15.229-7.401-15.229-16.5c0-9.098,6.832-16.5,15.229-16.5h434.542
										c8.397,0,15.229,7.402,15.229,16.5C488.5,265.099,481.669,272.5,473.271,272.5z M38.973,257.5h434.054
										c0.167-0.185,0.473-0.675,0.473-1.5s-0.306-1.315-0.473-1.5H38.972c-0.167,0.185-0.472,0.675-0.472,1.5
										S38.806,257.315,38.973,257.5z"/>
								</defs>
								<use xlink:href="#SVGID_45_"  overflow="visible"/>
								<clipPath id="SVGID_46_">
									<use xlink:href="#SVGID_45_"  overflow="visible"/>
								</clipPath>
								<g clip-path="url(#SVGID_46_)">
									<g>
										<rect x="147.87" y="245.001" width="9.66" height="22"/>
										<rect x="140.37" y="237.501" width="24.66" height="37"/>
									</g>
								</g>
							</g>
						</g>
					</g>
					<g>
						<g>
							<g>
								<defs>
									<path id="SVGID_47_" d="M473.271,272.5H38.729c-8.397,0-15.229-7.401-15.229-16.5c0-9.098,6.832-16.5,15.229-16.5h434.542
										c8.397,0,15.229,7.402,15.229,16.5C488.5,265.099,481.669,272.5,473.271,272.5z M38.973,257.5h434.054
										c0.167-0.185,0.473-0.675,0.473-1.5s-0.306-1.315-0.473-1.5H38.972c-0.167,0.185-0.472,0.675-0.472,1.5
										S38.806,257.315,38.973,257.5z"/>
								</defs>
								<use xlink:href="#SVGID_47_"  overflow="visible"/>
								<clipPath id="SVGID_48_">
									<use xlink:href="#SVGID_47_"  overflow="visible"/>
								</clipPath>
								<g clip-path="url(#SVGID_48_)">
									<g>
										<rect x="153.53" y="245.001" width="9.66" height="22"/>
										<rect x="146.03" y="237.501" width="24.66" height="37"/>
									</g>
								</g>
							</g>
						</g>
					</g>
					<g>
						<g>
							<g>
								<defs>
									<path id="SVGID_49_" d="M473.271,272.5H38.729c-8.397,0-15.229-7.401-15.229-16.5c0-9.098,6.832-16.5,15.229-16.5h434.542
										c8.397,0,15.229,7.402,15.229,16.5C488.5,265.099,481.669,272.5,473.271,272.5z M38.973,257.5h434.054
										c0.167-0.185,0.473-0.675,0.473-1.5s-0.306-1.315-0.473-1.5H38.972c-0.167,0.185-0.472,0.675-0.472,1.5
										S38.806,257.315,38.973,257.5z"/>
								</defs>
								<use xlink:href="#SVGID_49_"  overflow="visible"/>
								<clipPath id="SVGID_50_">
									<use xlink:href="#SVGID_49_"  overflow="visible"/>
								</clipPath>
								<g clip-path="url(#SVGID_50_)">
									<g>
										<rect x="159.19" y="245.001" width="9.66" height="22"/>
										<rect x="151.69" y="237.501" width="24.66" height="37"/>
									</g>
								</g>
							</g>
						</g>
					</g>
					<g>
						<g>
							<g>
								<defs>
									<path id="SVGID_51_" d="M473.271,272.5H38.729c-8.397,0-15.229-7.401-15.229-16.5c0-9.098,6.832-16.5,15.229-16.5h434.542
										c8.397,0,15.229,7.402,15.229,16.5C488.5,265.099,481.669,272.5,473.271,272.5z M38.973,257.5h434.054
										c0.167-0.185,0.473-0.675,0.473-1.5s-0.306-1.315-0.473-1.5H38.972c-0.167,0.185-0.472,0.675-0.472,1.5
										S38.806,257.315,38.973,257.5z"/>
								</defs>
								<use xlink:href="#SVGID_51_"  overflow="visible"/>
								<clipPath id="SVGID_52_">
									<use xlink:href="#SVGID_51_"  overflow="visible"/>
								</clipPath>
								<g clip-path="url(#SVGID_52_)">
									<g>
										<rect x="164.85" y="245.001" width="9.66" height="22"/>
										<rect x="157.35" y="237.501" width="24.66" height="37"/>
									</g>
								</g>
							</g>
						</g>
					</g>
					<g>
						<g>
							<g>
								<defs>
									<path id="SVGID_53_" d="M473.271,272.5H38.729c-8.397,0-15.229-7.401-15.229-16.5c0-9.098,6.832-16.5,15.229-16.5h434.542
										c8.397,0,15.229,7.402,15.229,16.5C488.5,265.099,481.669,272.5,473.271,272.5z M38.973,257.5h434.054
										c0.167-0.185,0.473-0.675,0.473-1.5s-0.306-1.315-0.473-1.5H38.972c-0.167,0.185-0.472,0.675-0.472,1.5
										S38.806,257.315,38.973,257.5z"/>
								</defs>
								<use xlink:href="#SVGID_53_"  overflow="visible"/>
								<clipPath id="SVGID_54_">
									<use xlink:href="#SVGID_53_"  overflow="visible"/>
								</clipPath>
								<g clip-path="url(#SVGID_54_)">
									<g>
										<rect x="170.511" y="245.001" width="9.66" height="22"/>
										<rect x="163.011" y="237.501" width="24.66" height="37"/>
									</g>
								</g>
							</g>
						</g>
					</g>
					<g>
						<g>
							<g>
								<defs>
									<path id="SVGID_55_" d="M473.271,272.5H38.729c-8.397,0-15.229-7.401-15.229-16.5c0-9.098,6.832-16.5,15.229-16.5h434.542
										c8.397,0,15.229,7.402,15.229,16.5C488.5,265.099,481.669,272.5,473.271,272.5z M38.973,257.5h434.054
										c0.167-0.185,0.473-0.675,0.473-1.5s-0.306-1.315-0.473-1.5H38.972c-0.167,0.185-0.472,0.675-0.472,1.5
										S38.806,257.315,38.973,257.5z"/>
								</defs>
								<use xlink:href="#SVGID_55_"  overflow="visible"/>
								<clipPath id="SVGID_56_">
									<use xlink:href="#SVGID_55_"  overflow="visible"/>
								</clipPath>
								<g clip-path="url(#SVGID_56_)">
									<g>
										<rect x="176.171" y="245.001" width="9.66" height="22"/>
										<rect x="168.671" y="237.501" width="24.66" height="37"/>
									</g>
								</g>
							</g>
						</g>
					</g>
					<g>
						<g>
							<g>
								<defs>
									<path id="SVGID_57_" d="M473.271,272.5H38.729c-8.397,0-15.229-7.401-15.229-16.5c0-9.098,6.832-16.5,15.229-16.5h434.542
										c8.397,0,15.229,7.402,15.229,16.5C488.5,265.099,481.669,272.5,473.271,272.5z M38.973,257.5h434.054
										c0.167-0.185,0.473-0.675,0.473-1.5s-0.306-1.315-0.473-1.5H38.972c-0.167,0.185-0.472,0.675-0.472,1.5
										S38.806,257.315,38.973,257.5z"/>
								</defs>
								<use xlink:href="#SVGID_57_"  overflow="visible"/>
								<clipPath id="SVGID_58_">
									<use xlink:href="#SVGID_57_"  overflow="visible"/>
								</clipPath>
								<g clip-path="url(#SVGID_58_)">
									<g>
										<rect x="181.831" y="245.001" width="9.66" height="22"/>
										<rect x="174.331" y="237.501" width="24.66" height="37"/>
									</g>
								</g>
							</g>
						</g>
					</g>
					<g>
						<g>
							<g>
								<defs>
									<path id="SVGID_59_" d="M473.271,272.5H38.729c-8.397,0-15.229-7.401-15.229-16.5c0-9.098,6.832-16.5,15.229-16.5h434.542
										c8.397,0,15.229,7.402,15.229,16.5C488.5,265.099,481.669,272.5,473.271,272.5z M38.973,257.5h434.054
										c0.167-0.185,0.473-0.675,0.473-1.5s-0.306-1.315-0.473-1.5H38.972c-0.167,0.185-0.472,0.675-0.472,1.5
										S38.806,257.315,38.973,257.5z"/>
								</defs>
								<use xlink:href="#SVGID_59_"  overflow="visible"/>
								<clipPath id="SVGID_60_">
									<use xlink:href="#SVGID_59_"  overflow="visible"/>
								</clipPath>
								<g clip-path="url(#SVGID_60_)">
									<g>
										<rect x="187.491" y="245.001" width="9.66" height="22"/>
										<rect x="179.991" y="237.501" width="24.66" height="37"/>
									</g>
								</g>
							</g>
						</g>
					</g>
					<g>
						<g>
							<g>
								<defs>
									<path id="SVGID_61_" d="M473.271,272.5H38.729c-8.397,0-15.229-7.401-15.229-16.5c0-9.098,6.832-16.5,15.229-16.5h434.542
										c8.397,0,15.229,7.402,15.229,16.5C488.5,265.099,481.669,272.5,473.271,272.5z M38.973,257.5h434.054
										c0.167-0.185,0.473-0.675,0.473-1.5s-0.306-1.315-0.473-1.5H38.972c-0.167,0.185-0.472,0.675-0.472,1.5
										S38.806,257.315,38.973,257.5z"/>
								</defs>
								<use xlink:href="#SVGID_61_"  overflow="visible"/>
								<clipPath id="SVGID_62_">
									<use xlink:href="#SVGID_61_"  overflow="visible"/>
								</clipPath>
								<g clip-path="url(#SVGID_62_)">
									<g>
										<rect x="193.151" y="245.001" width="9.66" height="22"/>
										<rect x="185.651" y="237.501" width="24.66" height="37"/>
									</g>
								</g>
							</g>
						</g>
					</g>
					<g>
						<g>
							<g>
								<defs>
									<path id="SVGID_63_" d="M473.271,272.5H38.729c-8.397,0-15.229-7.401-15.229-16.5c0-9.098,6.832-16.5,15.229-16.5h434.542
										c8.397,0,15.229,7.402,15.229,16.5C488.5,265.099,481.669,272.5,473.271,272.5z M38.973,257.5h434.054
										c0.167-0.185,0.473-0.675,0.473-1.5s-0.306-1.315-0.473-1.5H38.972c-0.167,0.185-0.472,0.675-0.472,1.5
										S38.806,257.315,38.973,257.5z"/>
								</defs>
								<use xlink:href="#SVGID_63_"  overflow="visible"/>
								<clipPath id="SVGID_64_">
									<use xlink:href="#SVGID_63_"  overflow="visible"/>
								</clipPath>
								<g clip-path="url(#SVGID_64_)">
									<g>
										<rect x="198.811" y="245.001" width="9.66" height="22"/>
										<rect x="191.311" y="237.501" width="24.66" height="37"/>
									</g>
								</g>
							</g>
						</g>
					</g>
					<g>
						<g>
							<g>
								<defs>
									<path id="SVGID_65_" d="M473.271,272.5H38.729c-8.397,0-15.229-7.401-15.229-16.5c0-9.098,6.832-16.5,15.229-16.5h434.542
										c8.397,0,15.229,7.402,15.229,16.5C488.5,265.099,481.669,272.5,473.271,272.5z M38.973,257.5h434.054
										c0.167-0.185,0.473-0.675,0.473-1.5s-0.306-1.315-0.473-1.5H38.972c-0.167,0.185-0.472,0.675-0.472,1.5
										S38.806,257.315,38.973,257.5z"/>
								</defs>
								<use xlink:href="#SVGID_65_"  overflow="visible"/>
								<clipPath id="SVGID_66_">
									<use xlink:href="#SVGID_65_"  overflow="visible"/>
								</clipPath>
								<g clip-path="url(#SVGID_66_)">
									<g>
										<rect x="204.471" y="245.001" width="9.66" height="22"/>
										<rect x="196.971" y="237.501" width="24.66" height="37"/>
									</g>
								</g>
							</g>
						</g>
					</g>
					<g>
						<g>
							<g>
								<defs>
									<path id="SVGID_67_" d="M473.271,272.5H38.729c-8.397,0-15.229-7.401-15.229-16.5c0-9.098,6.832-16.5,15.229-16.5h434.542
										c8.397,0,15.229,7.402,15.229,16.5C488.5,265.099,481.669,272.5,473.271,272.5z M38.973,257.5h434.054
										c0.167-0.185,0.473-0.675,0.473-1.5s-0.306-1.315-0.473-1.5H38.972c-0.167,0.185-0.472,0.675-0.472,1.5
										S38.806,257.315,38.973,257.5z"/>
								</defs>
								<use xlink:href="#SVGID_67_"  overflow="visible"/>
								<clipPath id="SVGID_68_">
									<use xlink:href="#SVGID_67_"  overflow="visible"/>
								</clipPath>
								<g clip-path="url(#SVGID_68_)">
									<g>
										<rect x="210.132" y="245.001" width="9.66" height="22"/>
										<rect x="202.632" y="237.501" width="24.66" height="37"/>
									</g>
								</g>
							</g>
						</g>
					</g>
					<g>
						<g>
							<g>
								<defs>
									<path id="SVGID_69_" d="M473.271,272.5H38.729c-8.397,0-15.229-7.401-15.229-16.5c0-9.098,6.832-16.5,15.229-16.5h434.542
										c8.397,0,15.229,7.402,15.229,16.5C488.5,265.099,481.669,272.5,473.271,272.5z M38.973,257.5h434.054
										c0.167-0.185,0.473-0.675,0.473-1.5s-0.306-1.315-0.473-1.5H38.972c-0.167,0.185-0.472,0.675-0.472,1.5
										S38.806,257.315,38.973,257.5z"/>
								</defs>
								<use xlink:href="#SVGID_69_"  overflow="visible"/>
								<clipPath id="SVGID_70_">
									<use xlink:href="#SVGID_69_"  overflow="visible"/>
								</clipPath>
								<g clip-path="url(#SVGID_70_)">
									<g>
										<rect x="215.792" y="245.001" width="9.66" height="22"/>
										<rect x="208.292" y="237.501" width="24.66" height="37"/>
									</g>
								</g>
							</g>
						</g>
					</g>
					<g>
						<g>
							<g>
								<defs>
									<path id="SVGID_71_" d="M473.271,272.5H38.729c-8.397,0-15.229-7.401-15.229-16.5c0-9.098,6.832-16.5,15.229-16.5h434.542
										c8.397,0,15.229,7.402,15.229,16.5C488.5,265.099,481.669,272.5,473.271,272.5z M38.973,257.5h434.054
										c0.167-0.185,0.473-0.675,0.473-1.5s-0.306-1.315-0.473-1.5H38.972c-0.167,0.185-0.472,0.675-0.472,1.5
										S38.806,257.315,38.973,257.5z"/>
								</defs>
								<use xlink:href="#SVGID_71_"  overflow="visible"/>
								<clipPath id="SVGID_72_">
									<use xlink:href="#SVGID_71_"  overflow="visible"/>
								</clipPath>
								<g clip-path="url(#SVGID_72_)">
									<g>
										<rect x="221.452" y="245.001" width="9.66" height="22"/>
										<rect x="213.952" y="237.501" width="24.66" height="37"/>
									</g>
								</g>
							</g>
						</g>
					</g>
					<g>
						<g>
							<g>
								<defs>
									<path id="SVGID_73_" d="M473.271,272.5H38.729c-8.397,0-15.229-7.401-15.229-16.5c0-9.098,6.832-16.5,15.229-16.5h434.542
										c8.397,0,15.229,7.402,15.229,16.5C488.5,265.099,481.669,272.5,473.271,272.5z M38.973,257.5h434.054
										c0.167-0.185,0.473-0.675,0.473-1.5s-0.306-1.315-0.473-1.5H38.972c-0.167,0.185-0.472,0.675-0.472,1.5
										S38.806,257.315,38.973,257.5z"/>
								</defs>
								<use xlink:href="#SVGID_73_"  overflow="visible"/>
								<clipPath id="SVGID_74_">
									<use xlink:href="#SVGID_73_"  overflow="visible"/>
								</clipPath>
								<g clip-path="url(#SVGID_74_)">
									<g>
										<rect x="227.112" y="245.001" width="9.664" height="22"/>
										<rect x="219.612" y="237.501" width="24.664" height="37"/>
									</g>
								</g>
							</g>
						</g>
					</g>
					<g>
						<g>
							<g>
								<defs>
									<path id="SVGID_75_" d="M473.271,272.5H38.729c-8.397,0-15.229-7.401-15.229-16.5c0-9.098,6.832-16.5,15.229-16.5h434.542
										c8.397,0,15.229,7.402,15.229,16.5C488.5,265.099,481.669,272.5,473.271,272.5z M38.973,257.5h434.054
										c0.167-0.185,0.473-0.675,0.473-1.5s-0.306-1.315-0.473-1.5H38.972c-0.167,0.185-0.472,0.675-0.472,1.5
										S38.806,257.315,38.973,257.5z"/>
								</defs>
								<use xlink:href="#SVGID_75_"  overflow="visible"/>
								<clipPath id="SVGID_76_">
									<use xlink:href="#SVGID_75_"  overflow="visible"/>
								</clipPath>
								<g clip-path="url(#SVGID_76_)">
									<g>
										<rect x="232.776" y="245.001" width="9.656" height="22"/>
										<rect x="225.276" y="237.501" width="24.656" height="37"/>
									</g>
								</g>
							</g>
						</g>
					</g>
					<g>
						<g>
							<g>
								<defs>
									<path id="SVGID_77_" d="M473.271,272.5H38.729c-8.397,0-15.229-7.401-15.229-16.5c0-9.098,6.832-16.5,15.229-16.5h434.542
										c8.397,0,15.229,7.402,15.229,16.5C488.5,265.099,481.669,272.5,473.271,272.5z M38.973,257.5h434.054
										c0.167-0.185,0.473-0.675,0.473-1.5s-0.306-1.315-0.473-1.5H38.972c-0.167,0.185-0.472,0.675-0.472,1.5
										S38.806,257.315,38.973,257.5z"/>
								</defs>
								<use xlink:href="#SVGID_77_"  overflow="visible"/>
								<clipPath id="SVGID_78_">
									<use xlink:href="#SVGID_77_"  overflow="visible"/>
								</clipPath>
								<g clip-path="url(#SVGID_78_)">
									<g>
										<rect x="238.432" y="245.001" width="9.664" height="22"/>
										<rect x="230.932" y="237.501" width="24.664" height="37"/>
									</g>
								</g>
							</g>
						</g>
					</g>
					<g>
						<g>
							<g>
								<defs>
									<path id="SVGID_79_" d="M473.271,272.5H38.729c-8.397,0-15.229-7.401-15.229-16.5c0-9.098,6.832-16.5,15.229-16.5h434.542
										c8.397,0,15.229,7.402,15.229,16.5C488.5,265.099,481.669,272.5,473.271,272.5z M38.973,257.5h434.054
										c0.167-0.185,0.473-0.675,0.473-1.5s-0.306-1.315-0.473-1.5H38.972c-0.167,0.185-0.472,0.675-0.472,1.5
										S38.806,257.315,38.973,257.5z"/>
								</defs>
								<use xlink:href="#SVGID_79_"  overflow="visible"/>
								<clipPath id="SVGID_80_">
									<use xlink:href="#SVGID_79_"  overflow="visible"/>
								</clipPath>
								<g clip-path="url(#SVGID_80_)">
									<g>
										<rect x="244.096" y="245.001" width="9.66" height="22"/>
										<rect x="236.596" y="237.501" width="24.66" height="37"/>
									</g>
								</g>
							</g>
						</g>
					</g>
					<g>
						<g>
							<g>
								<defs>
									<path id="SVGID_81_" d="M473.271,272.5H38.729c-8.397,0-15.229-7.401-15.229-16.5c0-9.098,6.832-16.5,15.229-16.5h434.542
										c8.397,0,15.229,7.402,15.229,16.5C488.5,265.099,481.669,272.5,473.271,272.5z M38.973,257.5h434.054
										c0.167-0.185,0.473-0.675,0.473-1.5s-0.306-1.315-0.473-1.5H38.972c-0.167,0.185-0.472,0.675-0.472,1.5
										S38.806,257.315,38.973,257.5z"/>
								</defs>
								<use xlink:href="#SVGID_81_"  overflow="visible"/>
								<clipPath id="SVGID_82_">
									<use xlink:href="#SVGID_81_"  overflow="visible"/>
								</clipPath>
								<g clip-path="url(#SVGID_82_)">
									<g>
										<rect x="249.757" y="245.001" width="9.659" height="22"/>
										<rect x="242.257" y="237.501" width="24.659" height="37"/>
									</g>
								</g>
							</g>
						</g>
					</g>
					<g>
						<g>
							<g>
								<defs>
									<path id="SVGID_83_" d="M473.271,272.5H38.729c-8.397,0-15.229-7.401-15.229-16.5c0-9.098,6.832-16.5,15.229-16.5h434.542
										c8.397,0,15.229,7.402,15.229,16.5C488.5,265.099,481.669,272.5,473.271,272.5z M38.973,257.5h434.054
										c0.167-0.185,0.473-0.675,0.473-1.5s-0.306-1.315-0.473-1.5H38.972c-0.167,0.185-0.472,0.675-0.472,1.5
										S38.806,257.315,38.973,257.5z"/>
								</defs>
								<use xlink:href="#SVGID_83_"  overflow="visible"/>
								<clipPath id="SVGID_84_">
									<use xlink:href="#SVGID_83_"  overflow="visible"/>
								</clipPath>
								<g clip-path="url(#SVGID_84_)">
									<g>
										<rect x="255.417" y="245.001" width="9.66" height="22"/>
										<rect x="247.917" y="237.501" width="24.66" height="37"/>
									</g>
								</g>
							</g>
						</g>
					</g>
					<g>
						<g>
							<g>
								<defs>
									<path id="SVGID_85_" d="M473.271,272.5H38.729c-8.397,0-15.229-7.401-15.229-16.5c0-9.098,6.832-16.5,15.229-16.5h434.542
										c8.397,0,15.229,7.402,15.229,16.5C488.5,265.099,481.669,272.5,473.271,272.5z M38.973,257.5h434.054
										c0.167-0.185,0.473-0.675,0.473-1.5s-0.306-1.315-0.473-1.5H38.972c-0.167,0.185-0.472,0.675-0.472,1.5
										S38.806,257.315,38.973,257.5z"/>
								</defs>
								<use xlink:href="#SVGID_85_"  overflow="visible"/>
								<clipPath id="SVGID_86_">
									<use xlink:href="#SVGID_85_"  overflow="visible"/>
								</clipPath>
								<g clip-path="url(#SVGID_86_)">
									<g>
										<rect x="261.076" y="245.001" width="9.66" height="22"/>
										<rect x="253.576" y="237.501" width="24.66" height="37"/>
									</g>
								</g>
							</g>
						</g>
					</g>
					<g>
						<g>
							<g>
								<defs>
									<path id="SVGID_87_" d="M473.271,272.5H38.729c-8.397,0-15.229-7.401-15.229-16.5c0-9.098,6.832-16.5,15.229-16.5h434.542
										c8.397,0,15.229,7.402,15.229,16.5C488.5,265.099,481.669,272.5,473.271,272.5z M38.973,257.5h434.054
										c0.167-0.185,0.473-0.675,0.473-1.5s-0.306-1.315-0.473-1.5H38.972c-0.167,0.185-0.472,0.675-0.472,1.5
										S38.806,257.315,38.973,257.5z"/>
								</defs>
								<use xlink:href="#SVGID_87_"  overflow="visible"/>
								<clipPath id="SVGID_88_">
									<use xlink:href="#SVGID_87_"  overflow="visible"/>
								</clipPath>
								<g clip-path="url(#SVGID_88_)">
									<g>
										<rect x="266.736" y="245.001" width="9.66" height="22"/>
										<rect x="259.236" y="237.501" width="24.66" height="37"/>
									</g>
								</g>
							</g>
						</g>
					</g>
					<g>
						<g>
							<g>
								<defs>
									<path id="SVGID_89_" d="M473.271,272.5H38.729c-8.397,0-15.229-7.401-15.229-16.5c0-9.098,6.832-16.5,15.229-16.5h434.542
										c8.397,0,15.229,7.402,15.229,16.5C488.5,265.099,481.669,272.5,473.271,272.5z M38.973,257.5h434.054
										c0.167-0.185,0.473-0.675,0.473-1.5s-0.306-1.315-0.473-1.5H38.972c-0.167,0.185-0.472,0.675-0.472,1.5
										S38.806,257.315,38.973,257.5z"/>
								</defs>
								<use xlink:href="#SVGID_89_"  overflow="visible"/>
								<clipPath id="SVGID_90_">
									<use xlink:href="#SVGID_89_"  overflow="visible"/>
								</clipPath>
								<g clip-path="url(#SVGID_90_)">
									<g>
										<rect x="272.396" y="245.001" width="9.66" height="22"/>
										<rect x="264.896" y="237.501" width="24.66" height="37"/>
									</g>
								</g>
							</g>
						</g>
					</g>
					<g>
						<g>
							<g>
								<defs>
									<path id="SVGID_91_" d="M473.271,272.5H38.729c-8.397,0-15.229-7.401-15.229-16.5c0-9.098,6.832-16.5,15.229-16.5h434.542
										c8.397,0,15.229,7.402,15.229,16.5C488.5,265.099,481.669,272.5,473.271,272.5z M38.973,257.5h434.054
										c0.167-0.185,0.473-0.675,0.473-1.5s-0.306-1.315-0.473-1.5H38.972c-0.167,0.185-0.472,0.675-0.472,1.5
										S38.806,257.315,38.973,257.5z"/>
								</defs>
								<use xlink:href="#SVGID_91_"  overflow="visible"/>
								<clipPath id="SVGID_92_">
									<use xlink:href="#SVGID_91_"  overflow="visible"/>
								</clipPath>
								<g clip-path="url(#SVGID_92_)">
									<g>
										<rect x="278.057" y="245.001" width="9.66" height="22"/>
										<rect x="270.557" y="237.501" width="24.66" height="37"/>
									</g>
								</g>
							</g>
						</g>
					</g>
					<g>
						<g>
							<g>
								<defs>
									<path id="SVGID_93_" d="M473.271,272.5H38.729c-8.397,0-15.229-7.401-15.229-16.5c0-9.098,6.832-16.5,15.229-16.5h434.542
										c8.397,0,15.229,7.402,15.229,16.5C488.5,265.099,481.669,272.5,473.271,272.5z M38.973,257.5h434.054
										c0.167-0.185,0.473-0.675,0.473-1.5s-0.306-1.315-0.473-1.5H38.972c-0.167,0.185-0.472,0.675-0.472,1.5
										S38.806,257.315,38.973,257.5z"/>
								</defs>
								<use xlink:href="#SVGID_93_"  overflow="visible"/>
								<clipPath id="SVGID_94_">
									<use xlink:href="#SVGID_93_"  overflow="visible"/>
								</clipPath>
								<g clip-path="url(#SVGID_94_)">
									<g>
										<rect x="283.717" y="245.001" width="9.66" height="22"/>
										<rect x="276.217" y="237.501" width="24.66" height="37"/>
									</g>
								</g>
							</g>
						</g>
					</g>
					<g>
						<g>
							<g>
								<defs>
									<path id="SVGID_95_" d="M473.271,272.5H38.729c-8.397,0-15.229-7.401-15.229-16.5c0-9.098,6.832-16.5,15.229-16.5h434.542
										c8.397,0,15.229,7.402,15.229,16.5C488.5,265.099,481.669,272.5,473.271,272.5z M38.973,257.5h434.054
										c0.167-0.185,0.473-0.675,0.473-1.5s-0.306-1.315-0.473-1.5H38.972c-0.167,0.185-0.472,0.675-0.472,1.5
										S38.806,257.315,38.973,257.5z"/>
								</defs>
								<use xlink:href="#SVGID_95_"  overflow="visible"/>
								<clipPath id="SVGID_96_">
									<use xlink:href="#SVGID_95_"  overflow="visible"/>
								</clipPath>
								<g clip-path="url(#SVGID_96_)">
									<g>
										<rect x="289.377" y="245.001" width="9.66" height="22"/>
										<rect x="281.877" y="237.501" width="24.66" height="37"/>
									</g>
								</g>
							</g>
						</g>
					</g>
					<g>
						<g>
							<g>
								<defs>
									<path id="SVGID_97_" d="M473.271,272.5H38.729c-8.397,0-15.229-7.401-15.229-16.5c0-9.098,6.832-16.5,15.229-16.5h434.542
										c8.397,0,15.229,7.402,15.229,16.5C488.5,265.099,481.669,272.5,473.271,272.5z M38.973,257.5h434.054
										c0.167-0.185,0.473-0.675,0.473-1.5s-0.306-1.315-0.473-1.5H38.972c-0.167,0.185-0.472,0.675-0.472,1.5
										S38.806,257.315,38.973,257.5z"/>
								</defs>
								<use xlink:href="#SVGID_97_"  overflow="visible"/>
								<clipPath id="SVGID_98_">
									<use xlink:href="#SVGID_97_"  overflow="visible"/>
								</clipPath>
								<g clip-path="url(#SVGID_98_)">
									<g>
										<rect x="295.037" y="245.001" width="9.66" height="22"/>
										<rect x="287.537" y="237.501" width="24.66" height="37"/>
									</g>
								</g>
							</g>
						</g>
					</g>
					<g>
						<g>
							<g>
								<defs>
									<path id="SVGID_99_" d="M473.271,272.5H38.729c-8.397,0-15.229-7.401-15.229-16.5c0-9.098,6.832-16.5,15.229-16.5h434.542
										c8.397,0,15.229,7.402,15.229,16.5C488.5,265.099,481.669,272.5,473.271,272.5z M38.973,257.5h434.054
										c0.167-0.185,0.473-0.675,0.473-1.5s-0.306-1.315-0.473-1.5H38.972c-0.167,0.185-0.472,0.675-0.472,1.5
										S38.806,257.315,38.973,257.5z"/>
								</defs>
								<use xlink:href="#SVGID_99_"  overflow="visible"/>
								<clipPath id="SVGID_100_">
									<use xlink:href="#SVGID_99_"  overflow="visible"/>
								</clipPath>
								<g clip-path="url(#SVGID_100_)">
									<g>
										<rect x="300.697" y="245.001" width="9.66" height="22"/>
										<rect x="293.197" y="237.501" width="24.66" height="37"/>
									</g>
								</g>
							</g>
						</g>
					</g>
					<g>
						<g>
							<g>
								<defs>
									<path id="SVGID_101_" d="M473.271,272.5H38.729c-8.397,0-15.229-7.401-15.229-16.5c0-9.098,6.832-16.5,15.229-16.5h434.542
										c8.397,0,15.229,7.402,15.229,16.5C488.5,265.099,481.669,272.5,473.271,272.5z M38.973,257.5h434.054
										c0.167-0.185,0.473-0.675,0.473-1.5s-0.306-1.315-0.473-1.5H38.972c-0.167,0.185-0.472,0.675-0.472,1.5
										S38.806,257.315,38.973,257.5z"/>
								</defs>
								<use xlink:href="#SVGID_101_"  overflow="visible"/>
								<clipPath id="SVGID_102_">
									<use xlink:href="#SVGID_101_"  overflow="visible"/>
								</clipPath>
								<g clip-path="url(#SVGID_102_)">
									<g>
										<rect x="306.357" y="245.001" width="9.658" height="22"/>
										<rect x="298.857" y="237.501" width="24.658" height="37"/>
									</g>
								</g>
							</g>
						</g>
					</g>
					<g>
						<g>
							<g>
								<defs>
									<path id="SVGID_103_" d="M473.271,272.5H38.729c-8.397,0-15.229-7.401-15.229-16.5c0-9.098,6.832-16.5,15.229-16.5h434.542
										c8.397,0,15.229,7.402,15.229,16.5C488.5,265.099,481.669,272.5,473.271,272.5z M38.973,257.5h434.054
										c0.167-0.185,0.473-0.675,0.473-1.5s-0.306-1.315-0.473-1.5H38.972c-0.167,0.185-0.472,0.675-0.472,1.5
										S38.806,257.315,38.973,257.5z"/>
								</defs>
								<use xlink:href="#SVGID_103_"  overflow="visible"/>
								<clipPath id="SVGID_104_">
									<use xlink:href="#SVGID_103_"  overflow="visible"/>
								</clipPath>
								<g clip-path="url(#SVGID_104_)">
									<g>
										<rect x="312.018" y="245.001" width="9.66" height="22"/>
										<rect x="304.518" y="237.501" width="24.66" height="37"/>
									</g>
								</g>
							</g>
						</g>
					</g>
					<g>
						<g>
							<g>
								<defs>
									<path id="SVGID_105_" d="M473.271,272.5H38.729c-8.397,0-15.229-7.401-15.229-16.5c0-9.098,6.832-16.5,15.229-16.5h434.542
										c8.397,0,15.229,7.402,15.229,16.5C488.5,265.099,481.669,272.5,473.271,272.5z M38.973,257.5h434.054
										c0.167-0.185,0.473-0.675,0.473-1.5s-0.306-1.315-0.473-1.5H38.972c-0.167,0.185-0.472,0.675-0.472,1.5
										S38.806,257.315,38.973,257.5z"/>
								</defs>
								<use xlink:href="#SVGID_105_"  overflow="visible"/>
								<clipPath id="SVGID_106_">
									<use xlink:href="#SVGID_105_"  overflow="visible"/>
								</clipPath>
								<g clip-path="url(#SVGID_106_)">
									<g>
										<rect x="317.678" y="245.001" width="9.66" height="22"/>
										<rect x="310.178" y="237.501" width="24.66" height="37"/>
									</g>
								</g>
							</g>
						</g>
					</g>
					<g>
						<g>
							<g>
								<defs>
									<path id="SVGID_107_" d="M473.271,272.5H38.729c-8.397,0-15.229-7.401-15.229-16.5c0-9.098,6.832-16.5,15.229-16.5h434.542
										c8.397,0,15.229,7.402,15.229,16.5C488.5,265.099,481.669,272.5,473.271,272.5z M38.973,257.5h434.054
										c0.167-0.185,0.473-0.675,0.473-1.5s-0.306-1.315-0.473-1.5H38.972c-0.167,0.185-0.472,0.675-0.472,1.5
										S38.806,257.315,38.973,257.5z"/>
								</defs>
								<use xlink:href="#SVGID_107_"  overflow="visible"/>
								<clipPath id="SVGID_108_">
									<use xlink:href="#SVGID_107_"  overflow="visible"/>
								</clipPath>
								<g clip-path="url(#SVGID_108_)">
									<g>
										<rect x="323.338" y="245.001" width="9.664" height="22"/>
										<rect x="315.838" y="237.501" width="24.664" height="37"/>
									</g>
								</g>
							</g>
						</g>
					</g>
					<g>
						<g>
							<g>
								<defs>
									<path id="SVGID_109_" d="M473.271,272.5H38.729c-8.397,0-15.229-7.401-15.229-16.5c0-9.098,6.832-16.5,15.229-16.5h434.542
										c8.397,0,15.229,7.402,15.229,16.5C488.5,265.099,481.669,272.5,473.271,272.5z M38.973,257.5h434.054
										c0.167-0.185,0.473-0.675,0.473-1.5s-0.306-1.315-0.473-1.5H38.972c-0.167,0.185-0.472,0.675-0.472,1.5
										S38.806,257.315,38.973,257.5z"/>
								</defs>
								<use xlink:href="#SVGID_109_"  overflow="visible"/>
								<clipPath id="SVGID_110_">
									<use xlink:href="#SVGID_109_"  overflow="visible"/>
								</clipPath>
								<g clip-path="url(#SVGID_110_)">
									<g>
										<rect x="329.002" y="245.001" width="9.656" height="22"/>
										<rect x="321.502" y="237.501" width="24.656" height="37"/>
									</g>
								</g>
							</g>
						</g>
					</g>
					<g>
						<g>
							<g>
								<defs>
									<path id="SVGID_111_" d="M473.271,272.5H38.729c-8.397,0-15.229-7.401-15.229-16.5c0-9.098,6.832-16.5,15.229-16.5h434.542
										c8.397,0,15.229,7.402,15.229,16.5C488.5,265.099,481.669,272.5,473.271,272.5z M38.973,257.5h434.054
										c0.167-0.185,0.473-0.675,0.473-1.5s-0.306-1.315-0.473-1.5H38.972c-0.167,0.185-0.472,0.675-0.472,1.5
										S38.806,257.315,38.973,257.5z"/>
								</defs>
								<use xlink:href="#SVGID_111_"  overflow="visible"/>
								<clipPath id="SVGID_112_">
									<use xlink:href="#SVGID_111_"  overflow="visible"/>
								</clipPath>
								<g clip-path="url(#SVGID_112_)">
									<g>
										<rect x="334.658" y="245.001" width="9.664" height="22"/>
										<rect x="327.158" y="237.501" width="24.664" height="37"/>
									</g>
								</g>
							</g>
						</g>
					</g>
					<g>
						<g>
							<g>
								<defs>
									<path id="SVGID_113_" d="M473.271,272.5H38.729c-8.397,0-15.229-7.401-15.229-16.5c0-9.098,6.832-16.5,15.229-16.5h434.542
										c8.397,0,15.229,7.402,15.229,16.5C488.5,265.099,481.669,272.5,473.271,272.5z M38.973,257.5h434.054
										c0.167-0.185,0.473-0.675,0.473-1.5s-0.306-1.315-0.473-1.5H38.972c-0.167,0.185-0.472,0.675-0.472,1.5
										S38.806,257.315,38.973,257.5z"/>
								</defs>
								<use xlink:href="#SVGID_113_"  overflow="visible"/>
								<clipPath id="SVGID_114_">
									<use xlink:href="#SVGID_113_"  overflow="visible"/>
								</clipPath>
								<g clip-path="url(#SVGID_114_)">
									<g>
										<rect x="340.322" y="245.001" width="9.66" height="22"/>
										<rect x="332.822" y="237.501" width="24.66" height="37"/>
									</g>
								</g>
							</g>
						</g>
					</g>
					<g>
						<g>
							<g>
								<defs>
									<path id="SVGID_115_" d="M473.271,272.5H38.729c-8.397,0-15.229-7.401-15.229-16.5c0-9.098,6.832-16.5,15.229-16.5h434.542
										c8.397,0,15.229,7.402,15.229,16.5C488.5,265.099,481.669,272.5,473.271,272.5z M38.973,257.5h434.054
										c0.167-0.185,0.473-0.675,0.473-1.5s-0.306-1.315-0.473-1.5H38.972c-0.167,0.185-0.472,0.675-0.472,1.5
										S38.806,257.315,38.973,257.5z"/>
								</defs>
								<use xlink:href="#SVGID_115_"  overflow="visible"/>
								<clipPath id="SVGID_116_">
									<use xlink:href="#SVGID_115_"  overflow="visible"/>
								</clipPath>
								<g clip-path="url(#SVGID_116_)">
									<g>
										<rect x="345.982" y="245.001" width="9.658" height="22"/>
										<rect x="338.482" y="237.501" width="24.658" height="37"/>
									</g>
								</g>
							</g>
						</g>
					</g>
					<g>
						<g>
							<g>
								<defs>
									<path id="SVGID_117_" d="M473.271,272.5H38.729c-8.397,0-15.229-7.401-15.229-16.5c0-9.098,6.832-16.5,15.229-16.5h434.542
										c8.397,0,15.229,7.402,15.229,16.5C488.5,265.099,481.669,272.5,473.271,272.5z M38.973,257.5h434.054
										c0.167-0.185,0.473-0.675,0.473-1.5s-0.306-1.315-0.473-1.5H38.972c-0.167,0.185-0.472,0.675-0.472,1.5
										S38.806,257.315,38.973,257.5z"/>
								</defs>
								<use xlink:href="#SVGID_117_"  overflow="visible"/>
								<clipPath id="SVGID_118_">
									<use xlink:href="#SVGID_117_"  overflow="visible"/>
								</clipPath>
								<g clip-path="url(#SVGID_118_)">
									<g>
										<rect x="351.643" y="245.001" width="9.66" height="22"/>
										<rect x="344.143" y="237.501" width="24.66" height="37"/>
									</g>
								</g>
							</g>
						</g>
					</g>
					<g>
						<g>
							<g>
								<defs>
									<path id="SVGID_119_" d="M473.271,272.5H38.729c-8.397,0-15.229-7.401-15.229-16.5c0-9.098,6.832-16.5,15.229-16.5h434.542
										c8.397,0,15.229,7.402,15.229,16.5C488.5,265.099,481.669,272.5,473.271,272.5z M38.973,257.5h434.054
										c0.167-0.185,0.473-0.675,0.473-1.5s-0.306-1.315-0.473-1.5H38.972c-0.167,0.185-0.472,0.675-0.472,1.5
										S38.806,257.315,38.973,257.5z"/>
								</defs>
								<use xlink:href="#SVGID_119_"  overflow="visible"/>
								<clipPath id="SVGID_120_">
									<use xlink:href="#SVGID_119_"  overflow="visible"/>
								</clipPath>
								<g clip-path="url(#SVGID_120_)">
									<g>
										<rect x="357.303" y="245.001" width="9.66" height="22"/>
										<rect x="349.803" y="237.501" width="24.66" height="37"/>
									</g>
								</g>
							</g>
						</g>
					</g>
					<g>
						<g>
							<g>
								<defs>
									<path id="SVGID_121_" d="M473.271,272.5H38.729c-8.397,0-15.229-7.401-15.229-16.5c0-9.098,6.832-16.5,15.229-16.5h434.542
										c8.397,0,15.229,7.402,15.229,16.5C488.5,265.099,481.669,272.5,473.271,272.5z M38.973,257.5h434.054
										c0.167-0.185,0.473-0.675,0.473-1.5s-0.306-1.315-0.473-1.5H38.972c-0.167,0.185-0.472,0.675-0.472,1.5
										S38.806,257.315,38.973,257.5z"/>
								</defs>
								<use xlink:href="#SVGID_121_"  overflow="visible"/>
								<clipPath id="SVGID_122_">
									<use xlink:href="#SVGID_121_"  overflow="visible"/>
								</clipPath>
								<g clip-path="url(#SVGID_122_)">
									<g>
										<rect x="362.963" y="245.001" width="9.66" height="22"/>
										<rect x="355.463" y="237.501" width="24.66" height="37"/>
									</g>
								</g>
							</g>
						</g>
					</g>
					<g>
						<g>
							<g>
								<defs>
									<path id="SVGID_123_" d="M473.271,272.5H38.729c-8.397,0-15.229-7.401-15.229-16.5c0-9.098,6.832-16.5,15.229-16.5h434.542
										c8.397,0,15.229,7.402,15.229,16.5C488.5,265.099,481.669,272.5,473.271,272.5z M38.973,257.5h434.054
										c0.167-0.185,0.473-0.675,0.473-1.5s-0.306-1.315-0.473-1.5H38.972c-0.167,0.185-0.472,0.675-0.472,1.5
										S38.806,257.315,38.973,257.5z"/>
								</defs>
								<use xlink:href="#SVGID_123_"  overflow="visible"/>
								<clipPath id="SVGID_124_">
									<use xlink:href="#SVGID_123_"  overflow="visible"/>
								</clipPath>
								<g clip-path="url(#SVGID_124_)">
									<g>
										<rect x="368.623" y="245.001" width="9.66" height="22"/>
										<rect x="361.123" y="237.501" width="24.66" height="37"/>
									</g>
								</g>
							</g>
						</g>
					</g>
					<g>
						<g>
							<g>
								<defs>
									<path id="SVGID_125_" d="M473.271,272.5H38.729c-8.397,0-15.229-7.401-15.229-16.5c0-9.098,6.832-16.5,15.229-16.5h434.542
										c8.397,0,15.229,7.402,15.229,16.5C488.5,265.099,481.669,272.5,473.271,272.5z M38.973,257.5h434.054
										c0.167-0.185,0.473-0.675,0.473-1.5s-0.306-1.315-0.473-1.5H38.972c-0.167,0.185-0.472,0.675-0.472,1.5
										S38.806,257.315,38.973,257.5z"/>
								</defs>
								<use xlink:href="#SVGID_125_"  overflow="visible"/>
								<clipPath id="SVGID_126_">
									<use xlink:href="#SVGID_125_"  overflow="visible"/>
								</clipPath>
								<g clip-path="url(#SVGID_126_)">
									<g>
										<rect x="374.283" y="245.001" width="9.66" height="22"/>
										<rect x="366.783" y="237.501" width="24.66" height="37"/>
									</g>
								</g>
							</g>
						</g>
					</g>
					<g>
						<g>
							<g>
								<defs>
									<path id="SVGID_127_" d="M473.271,272.5H38.729c-8.397,0-15.229-7.401-15.229-16.5c0-9.098,6.832-16.5,15.229-16.5h434.542
										c8.397,0,15.229,7.402,15.229,16.5C488.5,265.099,481.669,272.5,473.271,272.5z M38.973,257.5h434.054
										c0.167-0.185,0.473-0.675,0.473-1.5s-0.306-1.315-0.473-1.5H38.972c-0.167,0.185-0.472,0.675-0.472,1.5
										S38.806,257.315,38.973,257.5z"/>
								</defs>
								<use xlink:href="#SVGID_127_"  overflow="visible"/>
								<clipPath id="SVGID_128_">
									<use xlink:href="#SVGID_127_"  overflow="visible"/>
								</clipPath>
								<g clip-path="url(#SVGID_128_)">
									<g>
										<rect x="379.943" y="245.001" width="9.66" height="22"/>
										<rect x="372.443" y="237.501" width="24.66" height="37"/>
									</g>
								</g>
							</g>
						</g>
					</g>
					<g>
						<g>
							<g>
								<defs>
									<path id="SVGID_129_" d="M473.271,272.5H38.729c-8.397,0-15.229-7.401-15.229-16.5c0-9.098,6.832-16.5,15.229-16.5h434.542
										c8.397,0,15.229,7.402,15.229,16.5C488.5,265.099,481.669,272.5,473.271,272.5z M38.973,257.5h434.054
										c0.167-0.185,0.473-0.675,0.473-1.5s-0.306-1.315-0.473-1.5H38.972c-0.167,0.185-0.472,0.675-0.472,1.5
										S38.806,257.315,38.973,257.5z"/>
								</defs>
								<use xlink:href="#SVGID_129_"  overflow="visible"/>
								<clipPath id="SVGID_130_">
									<use xlink:href="#SVGID_129_"  overflow="visible"/>
								</clipPath>
								<g clip-path="url(#SVGID_130_)">
									<g>
										<rect x="385.604" y="245.001" width="9.66" height="22"/>
										<rect x="378.104" y="237.501" width="24.66" height="37"/>
									</g>
								</g>
							</g>
						</g>
					</g>
					<g>
						<g>
							<g>
								<defs>
									<path id="SVGID_131_" d="M473.271,272.5H38.729c-8.397,0-15.229-7.401-15.229-16.5c0-9.098,6.832-16.5,15.229-16.5h434.542
										c8.397,0,15.229,7.402,15.229,16.5C488.5,265.099,481.669,272.5,473.271,272.5z M38.973,257.5h434.054
										c0.167-0.185,0.473-0.675,0.473-1.5s-0.306-1.315-0.473-1.5H38.972c-0.167,0.185-0.472,0.675-0.472,1.5
										S38.806,257.315,38.973,257.5z"/>
								</defs>
								<use xlink:href="#SVGID_131_"  overflow="visible"/>
								<clipPath id="SVGID_132_">
									<use xlink:href="#SVGID_131_"  overflow="visible"/>
								</clipPath>
								<g clip-path="url(#SVGID_132_)">
									<g>
										<rect x="391.264" y="245.001" width="9.66" height="22"/>
										<rect x="383.764" y="237.501" width="24.66" height="37"/>
									</g>
								</g>
							</g>
						</g>
					</g>
					<g>
						<g>
							<g>
								<defs>
									<path id="SVGID_133_" d="M473.271,272.5H38.729c-8.397,0-15.229-7.401-15.229-16.5c0-9.098,6.832-16.5,15.229-16.5h434.542
										c8.397,0,15.229,7.402,15.229,16.5C488.5,265.099,481.669,272.5,473.271,272.5z M38.973,257.5h434.054
										c0.167-0.185,0.473-0.675,0.473-1.5s-0.306-1.315-0.473-1.5H38.972c-0.167,0.185-0.472,0.675-0.472,1.5
										S38.806,257.315,38.973,257.5z"/>
								</defs>
								<use xlink:href="#SVGID_133_"  overflow="visible"/>
								<clipPath id="SVGID_134_">
									<use xlink:href="#SVGID_133_"  overflow="visible"/>
								</clipPath>
								<g clip-path="url(#SVGID_134_)">
									<g>
										<rect x="396.924" y="245.001" width="9.66" height="22"/>
										<rect x="389.424" y="237.501" width="24.66" height="37"/>
									</g>
								</g>
							</g>
						</g>
					</g>
					<g>
						<g>
							<g>
								<defs>
									<path id="SVGID_135_" d="M473.271,272.5H38.729c-8.397,0-15.229-7.401-15.229-16.5c0-9.098,6.832-16.5,15.229-16.5h434.542
										c8.397,0,15.229,7.402,15.229,16.5C488.5,265.099,481.669,272.5,473.271,272.5z M38.973,257.5h434.054
										c0.167-0.185,0.473-0.675,0.473-1.5s-0.306-1.315-0.473-1.5H38.972c-0.167,0.185-0.472,0.675-0.472,1.5
										S38.806,257.315,38.973,257.5z"/>
								</defs>
								<use xlink:href="#SVGID_135_"  overflow="visible"/>
								<clipPath id="SVGID_136_">
									<use xlink:href="#SVGID_135_"  overflow="visible"/>
								</clipPath>
								<g clip-path="url(#SVGID_136_)">
									<g>
										<rect x="402.584" y="245.001" width="9.66" height="22"/>
										<rect x="395.084" y="237.501" width="24.66" height="37"/>
									</g>
								</g>
							</g>
						</g>
					</g>
					<g>
						<g>
							<g>
								<defs>
									<path id="SVGID_137_" d="M473.271,272.5H38.729c-8.397,0-15.229-7.401-15.229-16.5c0-9.098,6.832-16.5,15.229-16.5h434.542
										c8.397,0,15.229,7.402,15.229,16.5C488.5,265.099,481.669,272.5,473.271,272.5z M38.973,257.5h434.054
										c0.167-0.185,0.473-0.675,0.473-1.5s-0.306-1.315-0.473-1.5H38.972c-0.167,0.185-0.472,0.675-0.472,1.5
										S38.806,257.315,38.973,257.5z"/>
								</defs>
								<use xlink:href="#SVGID_137_"  overflow="visible"/>
								<clipPath id="SVGID_138_">
									<use xlink:href="#SVGID_137_"  overflow="visible"/>
								</clipPath>
								<g clip-path="url(#SVGID_138_)">
									<g>
										<rect x="408.244" y="245.001" width="9.66" height="22"/>
										<rect x="400.744" y="237.501" width="24.66" height="37"/>
									</g>
								</g>
							</g>
						</g>
					</g>
					<g>
						<g>
							<g>
								<defs>
									<path id="SVGID_139_" d="M473.271,272.5H38.729c-8.397,0-15.229-7.401-15.229-16.5c0-9.098,6.832-16.5,15.229-16.5h434.542
										c8.397,0,15.229,7.402,15.229,16.5C488.5,265.099,481.669,272.5,473.271,272.5z M38.973,257.5h434.054
										c0.167-0.185,0.473-0.675,0.473-1.5s-0.306-1.315-0.473-1.5H38.972c-0.167,0.185-0.472,0.675-0.472,1.5
										S38.806,257.315,38.973,257.5z"/>
								</defs>
								<use xlink:href="#SVGID_139_"  overflow="visible"/>
								<clipPath id="SVGID_140_">
									<use xlink:href="#SVGID_139_"  overflow="visible"/>
								</clipPath>
								<g clip-path="url(#SVGID_140_)">
									<g>
										<rect x="413.904" y="245.001" width="9.66" height="22"/>
										<rect x="406.404" y="237.501" width="24.66" height="37"/>
									</g>
								</g>
							</g>
						</g>
					</g>
					<g>
						<g>
							<g>
								<defs>
									<path id="SVGID_141_" d="M473.271,272.5H38.729c-8.397,0-15.229-7.401-15.229-16.5c0-9.098,6.832-16.5,15.229-16.5h434.542
										c8.397,0,15.229,7.402,15.229,16.5C488.5,265.099,481.669,272.5,473.271,272.5z M38.973,257.5h434.054
										c0.167-0.185,0.473-0.675,0.473-1.5s-0.306-1.315-0.473-1.5H38.972c-0.167,0.185-0.472,0.675-0.472,1.5
										S38.806,257.315,38.973,257.5z"/>
								</defs>
								<use xlink:href="#SVGID_141_"  overflow="visible"/>
								<clipPath id="SVGID_142_">
									<use xlink:href="#SVGID_141_"  overflow="visible"/>
								</clipPath>
								<g clip-path="url(#SVGID_142_)">
									<g>
										<rect x="419.564" y="245.001" width="9.664" height="22"/>
										<rect x="412.064" y="237.501" width="24.664" height="37"/>
									</g>
								</g>
							</g>
						</g>
					</g>
					<g>
						<g>
							<g>
								<defs>
									<path id="SVGID_143_" d="M473.271,272.5H38.729c-8.397,0-15.229-7.401-15.229-16.5c0-9.098,6.832-16.5,15.229-16.5h434.542
										c8.397,0,15.229,7.402,15.229,16.5C488.5,265.099,481.669,272.5,473.271,272.5z M38.973,257.5h434.054
										c0.167-0.185,0.473-0.675,0.473-1.5s-0.306-1.315-0.473-1.5H38.972c-0.167,0.185-0.472,0.675-0.472,1.5
										S38.806,257.315,38.973,257.5z"/>
								</defs>
								<use xlink:href="#SVGID_143_"  overflow="visible"/>
								<clipPath id="SVGID_144_">
									<use xlink:href="#SVGID_143_"  overflow="visible"/>
								</clipPath>
								<g clip-path="url(#SVGID_144_)">
									<g>
										<rect x="425.229" y="245.001" width="9.656" height="22"/>
										<rect x="417.729" y="237.501" width="24.656" height="37"/>
									</g>
								</g>
							</g>
						</g>
					</g>
					<g>
						<g>
							<g>
								<defs>
									<path id="SVGID_145_" d="M473.271,272.5H38.729c-8.397,0-15.229-7.401-15.229-16.5c0-9.098,6.832-16.5,15.229-16.5h434.542
										c8.397,0,15.229,7.402,15.229,16.5C488.5,265.099,481.669,272.5,473.271,272.5z M38.973,257.5h434.054
										c0.167-0.185,0.473-0.675,0.473-1.5s-0.306-1.315-0.473-1.5H38.972c-0.167,0.185-0.472,0.675-0.472,1.5
										S38.806,257.315,38.973,257.5z"/>
								</defs>
								<use xlink:href="#SVGID_145_"  overflow="visible"/>
								<clipPath id="SVGID_146_">
									<use xlink:href="#SVGID_145_"  overflow="visible"/>
								</clipPath>
								<g clip-path="url(#SVGID_146_)">
									<g>
										<rect x="430.885" y="245.001" width="9.664" height="22"/>
										<rect x="423.385" y="237.501" width="24.664" height="37"/>
									</g>
								</g>
							</g>
						</g>
					</g>
					<g>
						<g>
							<g>
								<g id="SVGID_147_">
									<path d="M488.5,256c0,9.1-6.83,16.5-15.23,16.5H38.73c-8.4,0-15.23-7.4-15.23-16.5c0-9.1,6.83-16.5,15.23-16.5h434.54
										C481.67,239.5,488.5,246.9,488.5,256z"/>
								</g>
							</g>
							<g>
								<defs>
									<path id="SVGID_148_" d="M473.271,272.5H38.729c-8.397,0-15.229-7.401-15.229-16.5c0-9.098,6.832-16.5,15.229-16.5h434.542
										c8.397,0,15.229,7.402,15.229,16.5C488.5,265.099,481.669,272.5,473.271,272.5z M38.973,257.5h434.054
										c0.167-0.185,0.473-0.675,0.473-1.5s-0.306-1.315-0.473-1.5H38.972c-0.167,0.185-0.472,0.675-0.472,1.5
										S38.806,257.315,38.973,257.5z"/>
								</defs>
								<use xlink:href="#SVGID_148_"  overflow="visible"/>
								<clipPath id="SVGID_149_">
									<use xlink:href="#SVGID_148_"  overflow="visible"/>
								</clipPath>
								<g clip-path="url(#SVGID_149_)">
									<g>
										<rect x="436.549" y="245.001" width="46.453" height="22"/>
										<path d="M490.502,274.501h-61.453v-37h61.453V274.501z M444.049,259.501h31.453v-7h-31.453V259.501z"/>
									</g>
								</g>
							</g>
						</g>
					</g>
				</g>
			</g>
		</g>
	</g>
</g>
</svg>
